<svg xmlns="http://www.w3.org/2000/svg" viewBox="0 0 48 48"><g data-name="Advisor finance"><path d="M37 7a1 1 0 0 1 1 1 1 1 0 0 0 1 1c1.66 0 1.21-3-1-3.82a1 1 0 1 0-2 0A3 3 0 0 0 37 11a1 1 0 1 1-1 1 1 1 0 0 0-1-1c-1.66 0-1.21 3 1 3.82a1 1 0 1 0 2 0A3 3 0 0 0 37 9a1 1 0 0 1 0-2Z"/><path d="M44 0H30a4 4 0 0 0-4 4c0 18.38-.19 17.4.44 17.83s.53.26 5.75-1.83H44a4 4 0 0 0 4-4V4a4 4 0 0 0-4-4Zm2 16a2 2 0 0 1-2 2H32c-.28 0-.11 0-4 1.52V4a2 2 0 0 1 2-2h14a2 2 0 0 1 2 2Z"/><path d="M43 24a1 1 0 0 0-1 .84L39.15 42h-8.71A4 4 0 0 0 27 40h-6c0-.11 0-.07-.19-1.37A13.19 13.19 0 0 0 15 29.47v-1.29c1.53.26 3 .67 4.59-.67C21.32 26 21 24.22 21 21.84a3 3 0 0 0 .68-5.25c-.93-.63-1.57-.9-1.37-1.71a7.14 7.14 0 0 0-.19-4.83C21.31 8 22.64 6.31 21.29 4a4 4 0 0 0-3.46-2h-6.56C1.18 2-5 17.5 5.28 25.87c.87.72.72 1.39.72 3.67C1.35 33.39 2 38 2 43a5 5 0 0 0 5 5h34a4 4 0 0 0 4-4c0-1.29-.35 1.16 2.4-15.34.37-2.19-1.05-4.66-4.4-4.66ZM29 44a2 2 0 0 1-2 2h-2v-4h2a2 2 0 0 1 2 2Zm-8.43-25.75A1 1 0 0 1 20 20a1 1 0 0 0-1 1v3.46a2 2 0 0 1-2.33 2c-2.65-.44-2.86-.58-3.32-.19S13 27.08 13 29H8v-1.59c0-.35 1.42-1.59 1.87-4.41 1.21 0 1.48.05 2-.21C14.14 24.29 13.24 24 16 24a1 1 0 0 0 0-2c-2.14 0-1.43.17-3-.87V16a2 2 0 0 0-2-2h-1v-1a2 2 0 0 1 2-2h6.32a5.07 5.07 0 0 1 .05 3.39 3 3 0 0 0 1.24 3.22ZM11 16v5H8v-5Zm-9-1C2 9.55 5.9 4 11.27 4h6.56a2 2 0 0 1 1.73 1c.76 1.3-.15 2.28-1.14 4H12a4 4 0 0 0-4 4v1a2 2 0 0 0-2 2v5a2 2 0 0 0 1.85 2 7 7 0 0 1-.72 1.95C6.44 24.06 2 21.22 2 15Zm2 28c0-4.87-.63-8.78 3.34-12h6.38a11.17 11.17 0 0 1 5.11 7.91L19 40h-8v-5a1 1 0 0 0-2 0v6a1 1 0 0 0 1 1h13v4H7a3 3 0 0 1-3-3Zm37 3H30.44a3.91 3.91 0 0 0 .56-2c0-.1-.72 0 12 0a2 2 0 0 1-2 2Zm4.43-17.67L43.15 42h-2l2.66-16a2 2 0 0 1 1.62 2.33Z"/></g></svg>