<svg xmlns="http://www.w3.org/2000/svg" viewBox="0 0 48 48"><path d="M23 6.66v4.39c1.49-.13 2 .09 2-.05V6.66c3.53 1.31 6.84-.78 7.2-4.81-3.2-1.78-6.46-.64-7.7 2.31a.87.87 0 0 0-1 0C22.26 1.21 19 .07 15.8 1.85 16.16 5.88 19.47 8 23 6.66zM20.78 29c7.17 0 6.41.11 6.5-.24.79-3.14 2.3-4.17 3-5.76a7 7 0 1 0-13.17-4.46c-.97 4.95 2.39 5.35 3.67 10.46zM24 22a3 3 0 0 1-1-5.82 1 1 0 1 1 2 0A3 3 0 0 1 27 19a1 1 0 0 1-2 0 1 1 0 1 0-1 1 3 3 0 0 1 1 5.82 1 1 0 1 1-2 0C20.79 25 20.35 22 22 22a1 1 0 0 1 1 1 1 1 0 1 0 1-1zm-7.49-7H2a1 1 0 0 0-1 1v4a1 1 0 0 0 1 1h13.06a9 9 0 0 1 1.45-6zM46 15H31.48a8.91 8.91 0 0 1 1.46 6H46a1 1 0 0 0 1-1v-4a1 1 0 0 0-1-1zM12 31a1 1 0 0 0-1 1v2a1 1 0 0 0 1 1h8a5.62 5.62 0 0 1-1-4z"/><rect width="12" height="4" x="11" y="37" rx="1"/><rect width="12" height="4" x="11" y="43" rx="1"/><path d="M27 32v-1h-6v1a3 3 0 0 0 6 0zm9-1h-7a5.56 5.56 0 0 1-1 4h8a1 1 0 0 0 1-1v-2a1 1 0 0 0-1-1z"/><rect width="12" height="4" x="25" y="37" rx="1"/><rect width="12" height="4" x="25" y="43" rx="1"/><path d="M12 29h6.7c-.82-2.94-2.29-3.43-3.18-6H3v21a3 3 0 0 0 3 3h3.18A2.77 2.77 0 0 1 9 46c0-1.89-.19-2.93.78-4C8.8 40.92 9 39.88 9 38a3 3 0 0 1 .78-2C8.8 34.92 9 33.88 9 32a3 3 0 0 1 3-3zm17.3 0H36a3 3 0 0 1 3 3c0 1.89.19 2.93-.78 4a3 3 0 0 1 .78 2c0 1.89.19 2.93-.78 4 1 1.08.78 2.12.78 4a2.77 2.77 0 0 1-.18 1H42a3 3 0 0 0 3-3V23H32.49c-.92 2.6-2.36 3-3.19 6z"/></svg>