<svg xmlns="http://www.w3.org/2000/svg" data-name="Layer 1" viewBox="0 0 512 512"><path d="M300.36 46.15a7.5 7.5 0 1 0 13.44-6.66l-6.16-12.42a7.5 7.5 0 1 0-13.44 6.66Zm66.71 3.39a7.5 7.5 0 0 0 10.05-3.39l6.16-12.42a7.5 7.5 0 1 0-13.44-6.66l-6.16 12.42a7.5 7.5 0 0 0 3.39 10.05Zm133.16 175.63a87.81 87.81 0 0 0-7.5-98.79 7.53 7.53 0 0 0-4.73-2.73 87.94 87.94 0 0 0-67.38 17.66 82 82 0 0 0-163.75 0 88 88 0 0 0-67.39-17.66 7.51 7.51 0 0 0-4.72 2.73 87.83 87.83 0 0 0 9.6 120 158.16 158.16 0 0 0-6.9 106.41h-32.83a22.53 22.53 0 0 0-22.5 22.5v18.07a22.4 22.4 0 0 0 5.75 15 22.44 22.44 0 0 0-5.75 15v18.08a22.42 22.42 0 0 0 5.75 15 22.4 22.4 0 0 0-5.75 15v18.06a22.52 22.52 0 0 0 22.5 22.5H228a21.18 21.18 0 0 0 13.11-4.55 25.4 25.4 0 0 0 14.48 4.55h30A25.45 25.45 0 0 0 311 486.58v-22.45c2.61.47 5.24.86 7.88 1.19l.51.06 3.45.39 1.05.1 3 .25 1.23.09 3.68.21 2.16.07h8.57l2.1-.07 2.14-.1 1.9-.1c1.17-.07 2.33-.16 3.49-.26l1-.09c1.21-.11 2.41-.24 3.62-.38l1.14-.13c1.13-.14 2.26-.29 3.38-.46l.86-.12c1.4-.21 2.8-.43 4.19-.68v22.45A25.44 25.44 0 0 0 391.87 512h30a25.44 25.44 0 0 0 25.41-25.42v-63.45a157.81 157.81 0 0 0 48.84-114 155.94 155.94 0 0 0-13-62.8 87.41 87.41 0 0 0 17.11-21.16ZM291.39 97.51a67 67 0 1 1-19.61 47.34 66.54 66.54 0 0 1 19.61-47.34ZM234.26 490.7A6.31 6.31 0 0 1 228 497h-73.37a7.5 7.5 0 0 1-7.5-7.5v-18.07a7.5 7.5 0 0 1 7.5-7.5H228a6.31 6.31 0 0 1 6.3 6.3Zm0-48.08a6.31 6.31 0 0 1-6.3 6.31h-73.33a7.51 7.51 0 0 1-7.5-7.5v-18.08a7.51 7.51 0 0 1 7.5-7.5H228a6.31 6.31 0 0 1 6.3 6.31Zm0-48.07a6.31 6.31 0 0 1-6.3 6.3h-73.33a7.5 7.5 0 0 1-7.5-7.5v-18.07a7.51 7.51 0 0 1 7.5-7.5H228a6.31 6.31 0 0 1 6.3 6.3Zm232.91-147a141 141 0 0 1 14 61.6 142.77 142.77 0 0 1-46.39 105.16 7.49 7.49 0 0 0-2.45 5.54v66.71A10.42 10.42 0 0 1 421.9 497h-30a10.43 10.43 0 0 1-10.42-10.42v-26.14a70.32 70.32 0 0 0 24.72-14.94 7.5 7.5 0 1 0-10.21-11 55.81 55.81 0 0 1-23.84 13.1l-.88.2c-1.13.26-2.25.52-3.38.76l-1.33.25c-1 .19-1.92.38-2.88.55-.73.13-1.47.24-2.2.36s-1.31.22-2 .31c-1 .15-2 .27-3 .4l-1.15.14c-1.2.14-2.39.26-3.59.37l-.53.05c-1.33.12-2.66.21-4 .29h-.12a144.28 144.28 0 0 1-20.79-.29h-.42c-1.1-.1-2.2-.22-3.29-.34l-1.06-.12-2.46-.32-1.77-.21-1.36-.22c-3.54-.57-7.06-1.26-10.54-2.1a55.83 55.83 0 0 1-23.87-13.11 7.5 7.5 0 1 0-10.21 11A70.33 70.33 0 0 0 296 460.43v26.15A10.43 10.43 0 0 1 285.62 497h-30a10.41 10.41 0 0 1-6.7-2.46 21.18 21.18 0 0 0 .37-3.84v-20.47a21.16 21.16 0 0 0-5.11-13.8 21.19 21.19 0 0 0 5.11-13.81v-20.46a21.21 21.21 0 0 0-5.11-13.81 21.16 21.16 0 0 0 5.11-13.8v-20.47a21.33 21.33 0 0 0-21.3-21.3h-24.84a142.9 142.9 0 0 1 7.16-105.21 7.48 7.48 0 0 0-2.11-9.14 72.83 72.83 0 0 1-13.53-100.33 72.82 72.82 0 0 1 64.45 26.29 82 82 0 0 0 159.24 0 72.79 72.79 0 0 1 64.46-26.29 72.83 72.83 0 0 1-13.53 100.33 7.5 7.5 0 0 0-2.12 9.14Zm-77.32 34.16a7.5 7.5 0 0 0 7.5-7.5V260a7.5 7.5 0 1 0-15 0v14.19a7.5 7.5 0 0 0 7.5 7.54ZM338.74 45.25a7.5 7.5 0 0 0 7.5-7.5V7.5a7.5 7.5 0 0 0-15 0v30.25a7.5 7.5 0 0 0 7.5 7.5Zm-20.25 318.12a8.52 8.52 0 1 0 8.52 8.51 8.51 8.51 0 0 0-8.52-8.51Zm64.14-25.55c-11.82-8.34-27.41-12.94-43.89-12.94s-32.06 4.6-43.88 12.94c-12.61 8.91-19.56 21-19.56 34.06S282.25 397 294.86 406c11.82 8.34 27.4 12.94 43.88 12.94s32.07-4.6 43.89-12.94c12.61-8.91 19.56-21 19.56-34.07s-6.95-25.2-19.56-34.11Zm-43.89 66.07c-26.26 0-48.44-14.66-48.44-32s22.18-32 48.44-32 48.45 14.66 48.45 32-22.19 32-48.45 32ZM359 363.37a8.52 8.52 0 1 0 8.52 8.51 8.52 8.52 0 0 0-8.52-8.51Zm-71.35-81.64a7.5 7.5 0 0 0 7.5-7.5V260a7.5 7.5 0 1 0-15 0v14.19a7.5 7.5 0 0 0 7.49 7.54Zm-193 23H21.3A21.32 21.32 0 0 0 0 326v20.47a21.18 21.18 0 0 0 5.11 13.8A21.18 21.18 0 0 0 0 374.08v20.47a21.16 21.16 0 0 0 5.11 13.8A21.21 21.21 0 0 0 0 422.16v20.46a21.19 21.19 0 0 0 5.11 13.81A21.16 21.16 0 0 0 0 470.23v20.47A21.33 21.33 0 0 0 21.3 512h73.33a22.52 22.52 0 0 0 22.5-22.5v-18.07a22.4 22.4 0 0 0-5.75-15 22.42 22.42 0 0 0 5.75-15v-18.08a22.44 22.44 0 0 0-5.75-15 22.4 22.4 0 0 0 5.75-15v-18.07a22.42 22.42 0 0 0-5.75-15 22.4 22.4 0 0 0 5.75-15v-18.07a22.52 22.52 0 0 0-22.5-22.5Zm7.5 184.79a7.51 7.51 0 0 1-7.5 7.5H21.3a6.31 6.31 0 0 1-6.3-6.3v-20.49a6.31 6.31 0 0 1 6.3-6.3h73.33a7.51 7.51 0 0 1 7.5 7.5Zm0-48.07a7.52 7.52 0 0 1-7.5 7.5H21.3a6.31 6.31 0 0 1-6.3-6.31v-20.48a6.31 6.31 0 0 1 6.3-6.31h73.33a7.52 7.52 0 0 1 7.5 7.5Zm0-48.08a7.51 7.51 0 0 1-7.5 7.5H21.3a6.31 6.31 0 0 1-6.3-6.3v-20.49a6.31 6.31 0 0 1 6.3-6.3h73.33a7.52 7.52 0 0 1 7.5 7.5Zm0-48.07a7.51 7.51 0 0 1-7.5 7.5H21.3a6.31 6.31 0 0 1-6.3-6.3V326a6.31 6.31 0 0 1 6.3-6.3h73.33a7.51 7.51 0 0 1 7.5 7.5Zm228.16-201h-18.5a7.49 7.49 0 0 0-6 12.83l41.59 40.41a7.5 7.5 0 1 0 10.46-10.75l-28.3-27.49h.72a30.72 30.72 0 0 0 29.81-23.63h6.14a7.5 7.5 0 0 0 0-15h-6.33a30.39 30.39 0 0 0-3.31-7.86h9.64a7.5 7.5 0 0 0 0-15h-54.86a7.5 7.5 0 0 0 0 15h18.92a15.65 15.65 0 0 1 13.53 7.86h-32.45a7.5 7.5 0 0 0 0 15h32.86a15.65 15.65 0 0 1-13.94 8.58Z"/></svg>